<svg width="20" height="20" viewBox="0 0 20 20" fill="none" xmlns="http://www.w3.org/2000/svg">
<g opacity="0.5">
<path d="M1.42497 0.575189C1.36919 0.519403 1.30296 0.475152 1.23007 0.444961C1.15718 0.41477 1.07906 0.399231 1.00017 0.399231C0.921279 0.399231 0.843159 0.41477 0.770272 0.444961C0.697385 0.475152 0.631157 0.519403 0.575372 0.575189C0.519586 0.630974 0.475335 0.697201 0.445144 0.770089C0.414953 0.842976 0.399414 0.921096 0.399414 0.999989C0.399414 1.07888 0.414953 1.157 0.445144 1.22989C0.475335 1.30278 0.519586 1.369 0.575372 1.42479L4.77537 5.62239C2.69526 7.04119 1.24714 9.21207 0.736172 11.6776C0.720098 11.7548 0.719391 11.8344 0.73409 11.9119C0.74879 11.9894 0.778608 12.0633 0.821843 12.1292C0.865078 12.1952 0.920883 12.252 0.986071 12.2964C1.05126 12.3408 1.12455 12.3719 1.20177 12.388C1.27899 12.4041 1.35862 12.4048 1.43611 12.3901C1.5136 12.3754 1.58743 12.3456 1.6534 12.3023C1.71937 12.2591 1.77617 12.2033 1.82057 12.1381C1.86497 12.0729 1.8961 11.9996 1.91217 11.9224C2.14109 10.8143 2.58875 9.76295 3.22895 8.82996C3.86914 7.89697 4.68901 7.10105 5.64057 6.48879L7.54377 8.39199C7.0503 8.74782 6.64002 9.20662 6.34132 9.73663C6.04262 10.2666 5.86264 10.8552 5.81382 11.4617C5.76499 12.0681 5.8485 12.6779 6.05857 13.2488C6.26863 13.8198 6.60023 14.3383 7.03042 14.7685C7.46062 15.1987 7.97914 15.5303 8.55011 15.7404C9.12109 15.9505 9.73088 16.034 10.3373 15.9851C10.9437 15.9363 11.5323 15.7563 12.0623 15.4576C12.5923 15.1589 13.0511 14.7487 13.407 14.2552L18.5754 19.4248C18.688 19.5375 18.8408 19.6007 19.0002 19.6007C19.1595 19.6007 19.3123 19.5375 19.425 19.4248C19.5376 19.3121 19.6009 19.1593 19.6009 19C19.6009 18.8407 19.5376 18.6879 19.425 18.5752L1.42497 0.575189ZM12.543 13.3912C12.3035 13.7733 11.9809 14.0965 11.5992 14.3368C11.2176 14.577 10.7867 14.7282 10.3386 14.7789C9.89046 14.8297 9.43667 14.7787 9.01096 14.6299C8.58525 14.4811 8.19857 14.2382 7.87968 13.9193C7.56079 13.6004 7.3179 13.2137 7.16907 12.788C7.02024 12.3623 6.96931 11.9085 7.02005 11.4604C7.0708 11.0123 7.22192 10.5814 7.46218 10.1997C7.70244 9.81807 8.02565 9.49549 8.40777 9.25599L12.543 13.3924V13.3912Z" fill="white"/>
<path d="M10.1479 7.60242L14.1979 11.6512C14.1604 10.5894 13.7217 9.58124 12.9704 8.82994C12.2191 8.07864 11.211 7.64 10.1491 7.60242H10.1479Z" fill="white"/>
<path d="M10.0004 5.2C9.3164 5.2 8.6456 5.2888 8.0012 5.4556L7.0376 4.492C7.99148 4.16642 8.99248 4.00019 10.0004 4C14.432 4 18.3308 7.2076 19.2644 11.6776C19.2969 11.8335 19.266 11.996 19.1787 12.1292C19.0914 12.2625 18.9547 12.3555 18.7988 12.388C18.6428 12.4205 18.4804 12.3896 18.3472 12.3023C18.2139 12.215 18.1209 12.0783 18.0884 11.9224C17.27 7.9924 13.8488 5.2 10.0004 5.2Z" fill="white"/>
</g>
</svg>
